<svg xmlns="http://www.w3.org/2000/svg" height="40" viewBox="0 -960 960 960" width="40"><path d="M202.565-140.001q-25.788 0-44.176-18.388t-18.388-44.176v-554.87q0-25.788 18.388-44.176t44.176-18.388h554.87q25.788 0 44.176 18.388t18.388 44.176v554.87q0 25.788-18.388 44.176t-44.176 18.388h-554.87Zm277.416-154.562q39.506 0 71.455-22.744 31.949-22.743 49.231-58.743h169.077v-381.385q0-5.385-3.462-8.847-3.462-3.462-8.847-3.462h-554.87q-5.385 0-8.847 3.462-3.462 3.462-3.462 8.847v381.385h169.077q17.282 36 49.213 58.743 31.93 22.744 71.435 22.744Z"/></svg>