<svg xmlns="http://www.w3.org/2000/svg" height="24" viewBox="0 -960 960 960" width="24"><path d="M32.587-147.804v-120.609q0-36.224 18.742-66.589 18.743-30.365 49.801-46.346 62.718-31.239 127.664-46.978 64.947-15.739 131.923-15.739 67.435 0 132.392 15.619 64.956 15.62 127.195 46.859 31.059 15.947 49.802 46.245 18.742 30.299 18.742 66.916v120.622H32.587Zm739.848 0v-127.892q0-44.956-24.261-86.652-24.261-41.695-69.978-74.282 48.369 6.478 91.456 20.619t81.131 34.424q36.956 20 56.793 47.204 19.837 27.204 19.837 59.405v127.174H772.435ZM360.717-484.065q-67.913 0-115.989-48.076-48.076-48.077-48.076-115.99t48.076-115.989q48.076-48.076 115.989-48.076 67.913 0 115.99 48.076 48.076 48.076 48.076 115.989 0 67.913-48.076 115.99-48.077 48.076-115.99 48.076Zm411.718-164.068q0 67.676-48.183 115.872t-115.844 48.196q-11.277 0-28.038-2.62-16.761-2.619-28.718-6.098 27.479-32.478 42.098-72.399 14.62-39.921 14.62-82.913t-14.62-82.949Q579.131-771 551.652-803.479q14.239-5.239 28.239-6.978 14-1.739 28.366-1.739 67.723 0 115.951 48.194 48.227 48.193 48.227 115.869Z"/></svg>